# xmcd CD database file
#
# Track frame offsets:
#	150
#	18480
#	40696
#	58374
#	77653
#	95385
#	112869
#	132817
#	148005
#	167823
#	186303
#	203353
#	221902
#	242999
#	258157
#	272831
#	291343
#	298283
#
# Disc length: 4157 seconds
#
# Revision: 0
# Processed by: cddbd v1.5.2PL0 Copyright (c) Steve Scherf et al.
# Submitted via: CDex 1.51
#
DISCID=16103b12
DTITLE=Taylor Swift - Fearless
DYEAR=1900
DGENRE=Country
TTITLE0=Fearless
TTITLE1=Fifteen
TTITLE2=Love Story
TTITLE3=Hey Stephan
TTITLE4=White Horse
TTITLE5=You Belong With Me
TTITLE6=Breathe
TTITLE7=Tell Me Why
TTITLE8=You're Not Sorry
TTITLE9=The Way I Loved You
TTITLE10=Forever and Always
TTITLE11=The Best Day
TTITLE12=Change
TTITLE13=Our Song
TTITLE14=Teardrops On My Guitar
TTITLE15=Should've Said No
TTITLE16=Umbrella
TTITLE17=Interview
EXTD=
EXTT0=
EXTT1=
EXTT2=
EXTT3=
EXTT4=
EXTT5=
EXTT6=
EXTT7=
EXTT8=
EXTT9=
EXTT10=
EXTT11=
EXTT12=
EXTT13=
EXTT14=
EXTT15=
EXTT16=
EXTT17=
PLAYORDER=
